<svg width="20" height="20" viewBox="0 0 20 20" fill="none" xmlns="http://www.w3.org/2000/svg">
<path d="M9.99935 18.3333C14.6017 18.3333 18.3327 14.6023 18.3327 9.99996C18.3327 5.39759 14.6017 1.66663 9.99935 1.66663C5.39698 1.66663 1.66602 5.39759 1.66602 9.99996C1.66602 14.6023 5.39698 18.3333 9.99935 18.3333Z" stroke="#F59F0A" stroke-width="1.66667" stroke-linecap="round" stroke-linejoin="round"/>
<path d="M10 15C12.7614 15 15 12.7614 15 10C15 7.23858 12.7614 5 10 5C7.23858 5 5 7.23858 5 10C5 12.7614 7.23858 15 10 15Z" stroke="#F59F0A" stroke-width="1.66667" stroke-linecap="round" stroke-linejoin="round"/>
<path d="M10.0007 11.6667C10.9211 11.6667 11.6673 10.9205 11.6673 10C11.6673 9.07957 10.9211 8.33337 10.0007 8.33337C9.08018 8.33337 8.33398 9.07957 8.33398 10C8.33398 10.9205 9.08018 11.6667 10.0007 11.6667Z" stroke="#F59F0A" stroke-width="1.66667" stroke-linecap="round" stroke-linejoin="round"/>
</svg>
