<svg width="16" height="16" viewBox="0 0 16 16" fill="none" xmlns="http://www.w3.org/2000/svg">
<path d="M4.00065 12H2.66732C2.3137 12 1.97456 11.8595 1.72451 11.6095C1.47446 11.3594 1.33398 11.0203 1.33398 10.6667V7.33333C1.33398 6.97971 1.47446 6.64057 1.72451 6.39052C1.97456 6.14048 2.3137 6 2.66732 6H13.334C13.6876 6 14.0267 6.14048 14.2768 6.39052C14.5268 6.64057 14.6673 6.97971 14.6673 7.33333V10.6667C14.6673 11.0203 14.5268 11.3594 14.2768 11.6095C14.0267 11.8595 13.6876 12 13.334 12H12.0007" stroke="#188B8B" stroke-width="1.33333" stroke-linecap="round" stroke-linejoin="round"/>
<path d="M4 6V2C4 1.82319 4.07024 1.65362 4.19526 1.5286C4.32029 1.40357 4.48986 1.33334 4.66667 1.33334H11.3333C11.5101 1.33334 11.6797 1.40357 11.8047 1.5286C11.9298 1.65362 12 1.82319 12 2V6" stroke="#188B8B" stroke-width="1.33333" stroke-linecap="round" stroke-linejoin="round"/>
<path d="M11.3333 9.33334H4.66667C4.29848 9.33334 4 9.63181 4 10V14C4 14.3682 4.29848 14.6667 4.66667 14.6667H11.3333C11.7015 14.6667 12 14.3682 12 14V10C12 9.63181 11.7015 9.33334 11.3333 9.33334Z" stroke="#188B8B" stroke-width="1.33333" stroke-linecap="round" stroke-linejoin="round"/>
</svg>
