<svg width="20" height="20" viewBox="0 0 20 20" fill="none" xmlns="http://www.w3.org/2000/svg">
<path d="M16.6669 13.3334V5.83335C16.6669 5.39133 16.4913 4.9674 16.1787 4.65484C15.8662 4.34228 15.4422 4.16669 15.0002 4.16669H5.00022C4.55819 4.16669 4.13427 4.34228 3.82171 4.65484C3.50915 4.9674 3.33355 5.39133 3.33355 5.83335V13.3334M16.6669 13.3334H3.33355M16.6669 13.3334L17.7336 15.4584C17.7978 15.5858 17.8282 15.7277 17.8219 15.8703C17.8156 16.0129 17.7727 16.1515 17.6974 16.2728C17.6221 16.3941 17.5169 16.4941 17.3919 16.563C17.2669 16.632 17.1263 16.6677 16.9836 16.6667H3.01689C2.87413 16.6677 2.73351 16.632 2.60851 16.563C2.48351 16.4941 2.37832 16.3941 2.30303 16.2728C2.22775 16.1515 2.18488 16.0129 2.17855 15.8703C2.17222 15.7277 2.20264 15.5858 2.26689 15.4584L3.33355 13.3334" stroke="black" stroke-width="1.66667" stroke-linecap="round" stroke-linejoin="round"/>
</svg>
