<svg width="20" height="20" viewBox="0 0 20 20" fill="none" xmlns="http://www.w3.org/2000/svg">
<path d="M13.334 10.8333L17.6865 13.735C17.7492 13.7768 17.8221 13.8007 17.8974 13.8043C17.9727 13.8079 18.0475 13.791 18.114 13.7554C18.1804 13.7199 18.236 13.6669 18.2747 13.6023C18.3135 13.5376 18.3339 13.4637 18.334 13.3883V6.55833C18.334 6.48502 18.3147 6.41299 18.278 6.34954C18.2413 6.28608 18.1884 6.23343 18.1249 6.19691C18.0613 6.16039 17.9892 6.14129 17.9159 6.14154C17.8426 6.14179 17.7706 6.16138 17.7073 6.19833L13.334 8.75" stroke="#188B8B" stroke-width="1.66667" stroke-linecap="round" stroke-linejoin="round"/>
<path d="M11.666 5H3.33268C2.41221 5 1.66602 5.74619 1.66602 6.66667V13.3333C1.66602 14.2538 2.41221 15 3.33268 15H11.666C12.5865 15 13.3327 14.2538 13.3327 13.3333V6.66667C13.3327 5.74619 12.5865 5 11.666 5Z" stroke="#188B8B" stroke-width="1.66667" stroke-linecap="round" stroke-linejoin="round"/>
</svg>
